<svg width="390" height="633" viewBox="0 0 390 633" fill="none" xmlns="http://www.w3.org/2000/svg">
<path d="M426.257 0.804443L426.069 0C425.707 0.0846558 425.345 0.169373 424.984 0.254089L424.951 0.0991211C394.289 6.5174 365.619 13.0482 338.925 19.735C238.2 42.3732 160.378 66.6176 104.875 93.8985C33.0417 129.206 -1.74628 169.784 0.0673218 218.836C0.971802 243.297 10.9859 269.722 29.8181 298.475C48.652 327.231 76.3434 358.373 112.692 392.283C185.389 460.104 292.829 539.105 433.629 632.357L434.733 630.69C293.953 537.451 186.627 458.524 114.057 390.821C77.7721 356.97 50.205 325.952 31.4911 297.379C12.7754 268.804 2.95227 242.733 2.06598 218.762C0.298096 170.947 34.1143 130.907 105.757 95.6934C148.647 74.6121 204.971 55.326 275.036 37.1794C273.262 37.7101 271.5 38.2419 269.749 38.7749C211.268 54.9866 163.546 72.1783 126.387 90.8392C58.3645 125 25.4202 164.262 27.1375 211.719C27.9939 235.384 37.476 260.948 55.3076 288.765C73.1408 316.584 99.36 346.71 133.775 379.514C202.604 445.12 304.327 521.542 437.631 611.746L438.752 610.09C305.468 519.899 203.859 443.553 135.155 378.066C100.804 345.323 74.7069 315.321 56.9914 287.685C39.2742 260.047 29.9752 234.832 29.1362 211.646C27.4627 165.402 59.4699 126.683 127.285 92.6265C150.848 80.7931 178.695 69.5443 210.884 58.7561C188.141 67.4341 168.064 76.4368 150.628 85.8342C90.7165 118.124 61.7169 155.234 63.2283 200.058C64.7344 244.723 96.5576 296.644 157.102 358.58C217.691 420.561 307.233 492.756 424.569 577.969L425.744 576.35C308.43 491.154 219 419.038 158.533 357.182C98.0219 295.281 66.7057 243.84 65.2272 199.991C63.754 156.3 91.9246 119.745 151.577 87.5948C182.635 70.8556 222.155 55.3535 270.306 40.6958C282.962 37.1879 296.124 33.725 309.796 30.3026C255.014 46.4821 211.012 63.705 177.58 82.5852C122.553 113.661 95.9292 149.372 97.3167 192.486C98.6993 235.451 127.916 285.401 183.506 344.987C239.133 404.613 321.341 474.064 429.063 556.034L430.274 554.443C322.574 472.489 240.476 403.121 184.968 343.622C129.422 284.083 100.673 234.603 99.3156 192.422C97.963 150.39 123.825 115.24 178.563 84.3267C208.539 67.3986 247.104 51.785 294.443 37.047C258.25 49.6721 228.27 63.0137 204.406 77.3793C155.955 106.546 132.526 140.059 133.747 180.495C134.964 220.794 160.674 267.65 209.594 323.544C258.545 379.473 330.883 444.616 425.667 521.497L426.927 519.944C332.166 443.081 259.935 378.025 211.099 322.227C162.233 266.394 136.94 219.995 135.746 180.435C134.556 141.013 157.308 108.065 205.438 79.0928C243.631 56.1013 297.688 35.6926 368.106 16.617C390.405 11.6959 413.828 6.84857 438.383 2.05939L438 0.0963745C436.71 0.348083 435.422 0.599976 434.138 0.852051L433.993 0.0956421C432.537 0.373596 431.085 0.651794 429.636 0.930176L429.454 0.101074C428.386 0.335388 427.32 0.569824 426.257 0.804443Z" fill="url(#paint0_linear_583_1022)"/>
<path d="M242.786 77.3793C291.216 48.2257 364.834 23.2896 464.449 0L464.905 1.94751C365.332 25.2269 291.968 50.1074 243.818 79.0928C195.688 108.065 172.936 141.013 174.126 180.435C175.321 219.995 200.613 266.394 249.479 322.227C298.315 378.025 370.546 443.081 465.307 519.944L464.047 521.497C369.263 444.616 296.925 379.473 247.974 323.544C199.054 267.65 173.344 220.794 172.127 180.495C170.906 140.059 194.335 106.546 242.786 77.3793Z" fill="url(#paint1_linear_583_1022)"/>
<path d="M500.755 0C401.139 23.2896 327.522 48.2257 279.092 77.3793C230.641 106.546 207.212 140.059 208.433 180.495C209.649 220.794 235.36 267.65 284.279 323.544C333.23 379.473 405.569 444.616 500.352 521.497L501.612 519.944C406.851 443.081 334.62 378.025 285.784 322.227C236.918 266.394 211.626 219.995 210.432 180.435C209.242 141.013 231.994 108.065 280.123 79.0928C328.274 50.1074 401.637 25.2269 501.21 1.94751L500.755 0Z" fill="url(#paint2_linear_583_1022)"/>
<path d="M314.36 77.3793C362.79 48.2257 436.407 23.2896 536.023 0L536.478 1.94751C436.905 25.2269 363.542 50.1074 315.391 79.0928C267.262 108.065 244.51 141.013 245.7 180.435C246.894 219.995 272.186 266.394 321.053 322.227C369.888 378.025 442.119 443.081 536.88 519.944L535.621 521.497C440.837 444.616 368.498 379.473 319.548 323.544C270.628 267.65 244.917 220.794 243.701 180.495C242.48 140.059 265.909 106.546 314.36 77.3793Z" fill="url(#paint3_linear_583_1022)"/>
<path d="M561.955 0C462.339 23.2896 388.722 48.2257 340.292 77.3793C291.841 106.546 268.412 140.059 269.633 180.495C270.85 220.794 296.56 267.65 345.48 323.544C394.431 379.473 466.769 444.616 561.553 521.497L562.813 519.944C468.052 443.081 395.821 378.025 346.985 322.227C298.119 266.394 272.827 219.995 271.632 180.435C270.442 141.013 293.194 108.065 341.324 79.0928C389.474 50.1074 462.838 25.2269 562.411 1.94751L561.955 0Z" fill="url(#paint4_linear_583_1022)"/>
<defs>
<linearGradient id="paint0_linear_583_1022" x1="135.91" y1="150.65" x2="649.47" y2="507.722" gradientUnits="userSpaceOnUse">
<stop stop-color="#5D3FD3"/>
<stop offset="1" stop-color="#800020"/>
</linearGradient>
<linearGradient id="paint1_linear_583_1022" x1="135.91" y1="150.65" x2="649.47" y2="507.722" gradientUnits="userSpaceOnUse">
<stop stop-color="#5D3FD3"/>
<stop offset="1" stop-color="#800020"/>
</linearGradient>
<linearGradient id="paint2_linear_583_1022" x1="135.91" y1="150.65" x2="649.47" y2="507.722" gradientUnits="userSpaceOnUse">
<stop stop-color="#5D3FD3"/>
<stop offset="1" stop-color="#800020"/>
</linearGradient>
<linearGradient id="paint3_linear_583_1022" x1="135.91" y1="150.65" x2="649.47" y2="507.722" gradientUnits="userSpaceOnUse">
<stop stop-color="#5D3FD3"/>
<stop offset="1" stop-color="#800020"/>
</linearGradient>
<linearGradient id="paint4_linear_583_1022" x1="135.91" y1="150.65" x2="649.47" y2="507.722" gradientUnits="userSpaceOnUse">
<stop stop-color="#5D3FD3"/>
<stop offset="1" stop-color="#800020"/>
</linearGradient>
</defs>
</svg>
